<svg xmlns="http://www.w3.org/2000/svg" xmlns:xlink="http://www.w3.org/1999/xlink" viewBox="0 0 66 18" fill="#fff" fill-rule="evenodd" stroke="#000" stroke-linecap="round" stroke-linejoin="round"><use xlink:href="#A" x="1" y="1"/><symbol id="A" overflow="visible"><g stroke="none" fill="#000" fill-rule="nonzero"><path d="M6.678 7.243c.564-.464.976-1.086 1.2-1.786.412-1.076-.114-2.28-1.2-2.712C3.212.989.974 4.117.65 4.845s-.896 1.884-.534 4.52 1.634 5.07 5.612 6.028c3.806.884 7.8.4 11.3-1.32l11.76-4.904c1.087-.267 2.202-.405 3.322-.414V4.727A9.2 9.2 0 0 0 23.204.041c-6.352.5-8.876 3.768-10.4 5.168S8.39 9.927 6.468 9.347 4.004 6.393 4.682 5.663s1.212-.6 1.634 0a3.18 3.18 0 0 1 .376 1.574z"/><path d="M57.318 7.243c-.564-.464-.976-1.086-1.2-1.786-.412-1.076.114-2.28 1.2-2.712 3.466-1.756 5.704 1.372 6.028 2.1s.896 1.884.534 4.52-1.634 5.07-5.612 6.028c-3.806.884-7.8.4-11.3-1.32l-11.76-4.904c-1.087-.267-2.202-.405-3.322-.414V4.727A9.2 9.2 0 0 1 40.792.041c6.352.5 8.876 3.768 10.4 5.168s4.414 4.7 6.336 4.12 2.464-2.954 1.786-3.684-1.212-.6-1.634 0a3.18 3.18 0 0 0-.376 1.574z"/></g></symbol></svg>